<svg width="1600" height="1100" viewBox="0 0 1600 1100" fill="none" xmlns="http://www.w3.org/2000/svg">
  <defs>
    <linearGradient id="bg" x1="120" y1="80" x2="1500" y2="980" gradientUnits="userSpaceOnUse">
      <stop stop-color="#08111F"/>
      <stop offset="0.52" stop-color="#101936"/>
      <stop offset="1" stop-color="#090D17"/>
    </linearGradient>
    <linearGradient id="gold" x1="676" y1="150" x2="1008" y2="404" gradientUnits="userSpaceOnUse">
      <stop stop-color="#FFD88A"/>
      <stop offset="1" stop-color="#E8B552"/>
    </linearGradient>
    <linearGradient id="blue" x1="336" y1="264" x2="948" y2="876" gradientUnits="userSpaceOnUse">
      <stop stop-color="#7BD8FF"/>
      <stop offset="1" stop-color="#6B6BFF"/>
    </linearGradient>
    <linearGradient id="cardA" x1="0" y1="0" x2="0" y2="1">
      <stop stop-color="rgba(123,216,255,0.28)"/>
      <stop offset="1" stop-color="rgba(255,255,255,0.05)"/>
    </linearGradient>
    <filter id="blur" x="0" y="0" width="1600" height="1100" filterUnits="userSpaceOnUse" color-interpolation-filters="sRGB">
      <feGaussianBlur stdDeviation="30"/>
    </filter>
  </defs>

  <rect width="1600" height="1100" rx="56" fill="url(#bg)"/>

  <g opacity="0.72" filter="url(#blur)">
    <circle cx="1270" cy="180" r="120" fill="#E8B552"/>
    <circle cx="250" cy="180" r="130" fill="#1FB7FF"/>
    <circle cx="1330" cy="900" r="140" fill="#6B6BFF"/>
  </g>

  <rect x="74" y="72" width="1452" height="956" rx="42" fill="rgba(255,255,255,0.03)" stroke="rgba(255,255,255,0.1)"/>

  <g>
    <rect x="120" y="124" width="476" height="346" rx="34" fill="rgba(255,255,255,0.04)" stroke="rgba(255,255,255,0.08)"/>
    <text x="164" y="196" fill="#F4F8FF" font-family="Space Grotesk, Arial, sans-serif" font-size="78" font-weight="700">br<tspan fill="#E8B552">A</tspan>In</text>
    <text x="165" y="242" fill="#8CA4CE" font-family="Manrope, Arial, sans-serif" font-size="28" letter-spacing="8">YOUR BUSINESS BRAIN. POWERED BY AI.</text>
    <text x="165" y="326" fill="#FFFFFF" font-family="Space Grotesk, Arial, sans-serif" font-size="68" font-weight="700">500 SC cards</text>
    <text x="165" y="388" fill="#E8B552" font-family="Space Grotesk, Arial, sans-serif" font-size="68" font-weight="700">for every plan.</text>
    <text x="165" y="432" fill="#9FB3D8" font-family="Manrope, Arial, sans-serif" font-size="28">Animated access, sector dashboards, VPN-ready routing, and live client activation.</text>
  </g>

  <g transform="translate(905 120)">
    <circle cx="0" cy="0" r="104" fill="rgba(255,255,255,0.03)" stroke="rgba(255,255,255,0.12)"/>
    <path d="M0 -82C-38 -82 -70 -50 -70 -10V10C-70 50 -38 82 0 82" stroke="#F4F8FF" stroke-width="18" stroke-linecap="round"/>
    <path d="M0 -82C38 -82 70 -50 70 -10V10C70 50 38 82 0 82" stroke="url(#blue)" stroke-width="18" stroke-linecap="round"/>
    <rect x="-56" y="-56" width="112" height="112" rx="24" fill="#0A1122" stroke="url(#gold)" stroke-width="4"/>
    <text x="-27" y="18" fill="#F4F8FF" font-family="Space Grotesk, Arial, sans-serif" font-size="56" font-weight="700">AI</text>
    <path d="M96 -6H220" stroke="url(#gold)" stroke-width="8" stroke-linecap="round"/>
    <path d="M92 30H244" stroke="url(#gold)" stroke-width="8" stroke-linecap="round"/>
    <path d="M92 -40H244" stroke="url(#gold)" stroke-width="8" stroke-linecap="round"/>
    <circle cx="244" cy="-40" r="11" fill="#E8B552"/>
    <circle cx="220" cy="-6" r="11" fill="#E8B552"/>
    <circle cx="244" cy="30" r="11" fill="#E8B552"/>
  </g>

  <g transform="translate(120 548)">
    <rect width="262" height="332" rx="32" fill="rgba(255,255,255,0.05)" stroke="rgba(255,255,255,0.1)"/>
    <text x="34" y="64" fill="#9AD4A6" font-family="Manrope, Arial, sans-serif" font-size="28" font-weight="700" letter-spacing="4">STARTER</text>
    <text x="34" y="140" fill="#F4F8FF" font-family="Space Grotesk, Arial, sans-serif" font-size="58" font-weight="700">EUR 180</text>
    <text x="34" y="195" fill="#9FB3D8" font-family="Manrope, Arial, sans-serif" font-size="24">1 device, secure cloud, 600k tokens</text>
    <rect x="34" y="236" width="194" height="52" rx="26" fill="rgba(31,183,255,0.12)" stroke="rgba(31,183,255,0.32)"/>
    <text x="62" y="270" fill="#9FE3FF" font-family="Manrope, Arial, sans-serif" font-size="24" font-weight="700">500 SC CARDS</text>
  </g>

  <g transform="translate(414 514)">
    <rect width="262" height="366" rx="32" fill="rgba(255,255,255,0.05)" stroke="rgba(255,255,255,0.1)"/>
    <text x="34" y="64" fill="#7BD8FF" font-family="Manrope, Arial, sans-serif" font-size="28" font-weight="700" letter-spacing="4">PRO</text>
    <text x="34" y="140" fill="#F4F8FF" font-family="Space Grotesk, Arial, sans-serif" font-size="58" font-weight="700">EUR 490</text>
    <text x="34" y="195" fill="#9FB3D8" font-family="Manrope, Arial, sans-serif" font-size="24">Analytics, automations, multi-device growth</text>
    <rect x="34" y="236" width="194" height="52" rx="26" fill="rgba(31,183,255,0.12)" stroke="rgba(31,183,255,0.32)"/>
    <text x="62" y="270" fill="#9FE3FF" font-family="Manrope, Arial, sans-serif" font-size="24" font-weight="700">500 SC CARDS</text>
  </g>

  <g transform="translate(708 486)">
    <rect width="262" height="394" rx="32" fill="rgba(232,181,82,0.12)" stroke="rgba(232,181,82,0.28)"/>
    <text x="34" y="64" fill="#FFD88A" font-family="Manrope, Arial, sans-serif" font-size="28" font-weight="700" letter-spacing="4">BUSINESS</text>
    <text x="34" y="140" fill="#F4F8FF" font-family="Space Grotesk, Arial, sans-serif" font-size="58" font-weight="700">EUR 990</text>
    <text x="34" y="195" fill="#D2DDF2" font-family="Manrope, Arial, sans-serif" font-size="24">Voice, CRM/API, client workflows and scale</text>
    <rect x="34" y="236" width="194" height="52" rx="26" fill="rgba(255,216,138,0.12)" stroke="rgba(255,216,138,0.34)"/>
    <text x="62" y="270" fill="#FFE7B3" font-family="Manrope, Arial, sans-serif" font-size="24" font-weight="700">500 SC CARDS</text>
    <text x="34" y="334" fill="#FFFFFF" font-family="Space Grotesk, Arial, sans-serif" font-size="28" font-weight="700">Most popular</text>
  </g>

  <g transform="translate(1002 514)">
    <rect width="262" height="366" rx="32" fill="rgba(107,107,255,0.12)" stroke="rgba(123,216,255,0.22)"/>
    <text x="34" y="64" fill="#CAB8FF" font-family="Manrope, Arial, sans-serif" font-size="28" font-weight="700" letter-spacing="4">PLATINUM</text>
    <text x="34" y="140" fill="#F4F8FF" font-family="Space Grotesk, Arial, sans-serif" font-size="58" font-weight="700">EUR 1990</text>
    <text x="34" y="195" fill="#C9D6F2" font-family="Manrope, Arial, sans-serif" font-size="24">Unlimited devices, premium support, custom APIs</text>
    <rect x="34" y="236" width="194" height="52" rx="26" fill="rgba(107,107,255,0.14)" stroke="rgba(123,216,255,0.3)"/>
    <text x="62" y="270" fill="#D9D0FF" font-family="Manrope, Arial, sans-serif" font-size="24" font-weight="700">500 SC CARDS</text>
  </g>

  <g transform="translate(1296 548)">
    <rect width="184" height="332" rx="32" fill="rgba(255,255,255,0.05)" stroke="rgba(255,255,255,0.1)"/>
    <text x="28" y="64" fill="#FFFFFF" font-family="Manrope, Arial, sans-serif" font-size="24" font-weight="700" letter-spacing="3">PLATINUM+</text>
    <text x="28" y="140" fill="#F4F8FF" font-family="Space Grotesk, Arial, sans-serif" font-size="46" font-weight="700">EUR 1990</text>
    <rect x="28" y="236" width="128" height="52" rx="26" fill="rgba(255,255,255,0.08)" stroke="rgba(255,255,255,0.18)"/>
    <text x="48" y="270" fill="#F4F8FF" font-family="Manrope, Arial, sans-serif" font-size="20" font-weight="700">500 SC</text>
  </g>

  <text x="120" y="960" fill="#9FB3D8" font-family="Manrope, Arial, sans-serif" font-size="26">brain-ai.com • animated cards • client validate flow • admin activation • vpn routing</text>
</svg>
