<svg width="1600" height="1200" viewBox="0 0 1600 1200" fill="none" xmlns="http://www.w3.org/2000/svg">
  <defs>
    <linearGradient id="heroBg" x1="120" y1="80" x2="1450" y2="1040" gradientUnits="userSpaceOnUse">
      <stop offset="0%" stop-color="#0A1226"/>
      <stop offset="58%" stop-color="#0E1831"/>
      <stop offset="100%" stop-color="#050914"/>
    </linearGradient>
    <linearGradient id="heroGold" x1="450" y1="140" x2="1120" y2="760" gradientUnits="userSpaceOnUse">
      <stop offset="0%" stop-color="#FFD47A"/>
      <stop offset="100%" stop-color="#D59628"/>
    </linearGradient>
    <filter id="heroGlow" x="770" y="130" width="470" height="470" filterUnits="userSpaceOnUse">
      <feGaussianBlur stdDeviation="28"/>
    </filter>
  </defs>

  <rect width="1600" height="1200" rx="48" fill="url(#heroBg)"/>
  <circle cx="1300" cy="210" r="140" fill="#74B9FF" opacity="0.08"/>
  <circle cx="220" cy="160" r="180" fill="#E2A53A" opacity="0.08"/>

  <image href="/brand/brain-logo.svg" x="96" y="88" width="520" height="150"/>

  <text x="102" y="376" fill="#F8FAFC" font-size="92" font-family="Arial, Helvetica, sans-serif" font-weight="800">
    Smarter Business.
  </text>
  <text x="102" y="474" fill="url(#heroGold)" font-size="92" font-family="Arial, Helvetica, sans-serif" font-weight="800">
    Stronger Results.
  </text>
  <text x="104" y="560" fill="#C8D3EE" font-size="34" font-family="Arial, Helvetica, sans-serif">
    Live notifications, subscriptions, device activations and
  </text>
  <text x="104" y="608" fill="#C8D3EE" font-size="34" font-family="Arial, Helvetica, sans-serif">
    AI services in one sector-ready product ecosystem.
  </text>

  <rect x="96" y="700" width="1408" height="190" rx="34" fill="#0D152A" stroke="rgba(255,255,255,0.12)"/>
  <g transform="translate(136 740)">
    <rect width="300" height="108" rx="24" fill="rgba(255,255,255,0.03)" stroke="rgba(255,255,255,0.08)"/>
    <text x="26" y="34" fill="#E2A53A" font-size="26" font-family="Arial, Helvetica, sans-serif" font-weight="700">Secure &amp; Private</text>
    <text x="26" y="68" fill="#E7ECF8" font-size="22" font-family="Arial, Helvetica, sans-serif">Encrypted runtime and</text>
    <text x="26" y="96" fill="#E7ECF8" font-size="22" font-family="Arial, Helvetica, sans-serif">role-based access flows.</text>
  </g>
  <g transform="translate(468 740)">
    <rect width="300" height="108" rx="24" fill="rgba(255,255,255,0.03)" stroke="rgba(255,255,255,0.08)"/>
    <text x="26" y="34" fill="#7EC4FF" font-size="26" font-family="Arial, Helvetica, sans-serif" font-weight="700">Scale Without Limits</text>
    <text x="26" y="68" fill="#E7ECF8" font-size="22" font-family="Arial, Helvetica, sans-serif">Five subscription tiers</text>
    <text x="26" y="96" fill="#E7ECF8" font-size="22" font-family="Arial, Helvetica, sans-serif">and sector-ready devices.</text>
  </g>
  <g transform="translate(800 740)">
    <rect width="300" height="108" rx="24" fill="rgba(255,255,255,0.03)" stroke="rgba(255,255,255,0.08)"/>
    <text x="26" y="34" fill="#C29BFF" font-size="26" font-family="Arial, Helvetica, sans-serif" font-weight="700">All-In-One Platform</text>
    <text x="26" y="68" fill="#E7ECF8" font-size="22" font-family="Arial, Helvetica, sans-serif">Payments, notifications,</text>
    <text x="26" y="96" fill="#E7ECF8" font-size="22" font-family="Arial, Helvetica, sans-serif">analytics and automation.</text>
  </g>
  <g transform="translate(1132 740)">
    <rect width="300" height="108" rx="24" fill="rgba(255,255,255,0.03)" stroke="rgba(255,255,255,0.08)"/>
    <text x="26" y="34" fill="#8BE1BF" font-size="26" font-family="Arial, Helvetica, sans-serif" font-weight="700">Human Support</text>
    <text x="26" y="68" fill="#E7ECF8" font-size="22" font-family="Arial, Helvetica, sans-serif">Operations, onboarding</text>
    <text x="26" y="96" fill="#E7ECF8" font-size="22" font-family="Arial, Helvetica, sans-serif">and sector guidance included.</text>
  </g>

  <g filter="url(#heroGlow)">
    <circle cx="1005" cy="365" r="148" fill="#F6C35F" opacity="0.55"/>
  </g>
  <g transform="translate(834 166)">
    <ellipse cx="204" cy="228" rx="240" ry="212" fill="#F8F3EA"/>
    <ellipse cx="182" cy="236" rx="190" ry="170" fill="#FFFDF8"/>
    <rect x="120" y="176" width="168" height="168" rx="34" fill="#F3BE53"/>
    <rect x="138" y="194" width="132" height="132" rx="24" fill="#E3A62E"/>
    <text x="182" y="275" text-anchor="middle" fill="#FFFFFF" font-size="76" font-family="Arial, Helvetica, sans-serif" font-weight="800">AI</text>
    <g stroke="#E9B147" stroke-width="8" stroke-linecap="round">
      <path d="M204 176V76"/>
      <path d="M204 344V444"/>
      <path d="M120 260H20"/>
      <path d="M288 260H388"/>
      <path d="M148 204L82 138"/>
      <path d="M260 204L326 138"/>
      <path d="M148 316L84 380"/>
      <path d="M260 316L326 380"/>
    </g>
    <g fill="#E9B147">
      <circle cx="204" cy="76" r="12"/>
      <circle cx="204" cy="444" r="12"/>
      <circle cx="20" cy="260" r="12"/>
      <circle cx="388" cy="260" r="12"/>
      <circle cx="82" cy="138" r="12"/>
      <circle cx="326" cy="138" r="12"/>
      <circle cx="84" cy="380" r="12"/>
      <circle cx="326" cy="380" r="12"/>
    </g>
  </g>

  <text x="102" y="1012" fill="#E2A53A" font-size="28" font-family="Arial, Helvetica, sans-serif" letter-spacing="6">
    CATEGORIES
  </text>
  <text x="102" y="1062" fill="#F8FAFC" font-size="40" font-family="Arial, Helvetica, sans-serif" font-weight="700">
    Komercial · Business · Healthcare · Industry 4.0 AI
  </text>
</svg>
