<svg width="1400" height="980" viewBox="0 0 1400 980" fill="none" xmlns="http://www.w3.org/2000/svg">
  <defs>
    <linearGradient id="businessBg" x1="80" y1="40" x2="1320" y2="940" gradientUnits="userSpaceOnUse">
      <stop offset="0%" stop-color="#0D1830"/>
      <stop offset="55%" stop-color="#09111F"/>
      <stop offset="100%" stop-color="#060B15"/>
    </linearGradient>
    <linearGradient id="businessPanel" x1="0" y1="0" x2="1" y2="1">
      <stop offset="0%" stop-color="#16233F"/>
      <stop offset="100%" stop-color="#0C1426"/>
    </linearGradient>
    <linearGradient id="businessGlow" x1="0" y1="0" x2="1" y2="1">
      <stop offset="0%" stop-color="#74D8FF"/>
      <stop offset="100%" stop-color="#5576FF"/>
    </linearGradient>
    <linearGradient id="businessLine" x1="0" y1="0" x2="1" y2="0">
      <stop offset="0%" stop-color="#5AD5FF"/>
      <stop offset="100%" stop-color="#7B77FF"/>
    </linearGradient>
  </defs>

  <rect width="1400" height="980" rx="40" fill="url(#businessBg)"/>
  <circle cx="1162" cy="142" r="176" fill="#1A2F52" opacity="0.28"/>
  <circle cx="128" cy="882" r="150" fill="#13243E" opacity="0.42"/>
  <path d="M86 122H316" stroke="#2A395B" stroke-width="2"/>
  <path d="M86 862H440" stroke="#24324F" stroke-width="2"/>
  <path d="M1088 862H1316" stroke="#24324F" stroke-width="2"/>

  <rect x="68" y="60" width="276" height="42" rx="21" fill="#0F1A2D" stroke="#314668"/>
  <text x="92" y="87" fill="#AFC7EE" font-size="18" font-family="Arial, Helvetica, sans-serif" letter-spacing="2.8">BUSINESS / VOICE / ANALYTICS / AUTOMATION</text>
  <text x="72" y="162" fill="#FFFFFF" font-size="72" font-family="Arial, Helvetica, sans-serif" font-weight="800">brAIn Hub</text>
  <text x="72" y="214" fill="#6FD6FF" font-size="30" font-family="Arial, Helvetica, sans-serif" font-weight="700">Business sector board</text>
  <text x="72" y="272" fill="#C9D7F0" font-size="31" font-family="Arial, Helvetica, sans-serif">A desk-ready operating surface for calls, reporting, workflow tasks,</text>
  <text x="72" y="312" fill="#C9D7F0" font-size="31" font-family="Arial, Helvetica, sans-serif">lead capture, and secure business actions inside one branded system.</text>

  <rect x="70" y="364" width="520" height="414" rx="34" fill="url(#businessPanel)" stroke="#2D4266"/>
  <text x="106" y="416" fill="#90A4C8" font-size="18" font-family="Arial, Helvetica, sans-serif" letter-spacing="3">ACTIVE DEVICE</text>
  <rect x="126" y="458" width="300" height="220" rx="38" fill="#111B2E" stroke="#42577A"/>
  <rect x="150" y="482" width="252" height="150" rx="26" fill="#08111F" stroke="#263754"/>
  <rect x="174" y="512" width="58" height="44" rx="12" fill="#10233D"/>
  <rect x="244" y="512" width="58" height="44" rx="12" fill="#10233D"/>
  <rect x="314" y="512" width="58" height="44" rx="12" fill="#10233D"/>
  <rect x="174" y="570" width="198" height="18" rx="9" fill="url(#businessGlow)" opacity="0.95"/>
  <rect x="146" y="648" width="260" height="14" rx="7" fill="#212D43"/>
  <rect x="178" y="700" width="196" height="24" rx="12" fill="#1B2538"/>
  <rect x="454" y="496" width="82" height="152" rx="22" fill="#0B1220" stroke="#314668"/>
  <rect x="470" y="526" width="48" height="10" rx="5" fill="#152A45"/>
  <rect x="470" y="548" width="48" height="10" rx="5" fill="#152A45"/>
  <rect x="470" y="570" width="48" height="10" rx="5" fill="#152A45"/>
  <circle cx="474" cy="608" r="5" fill="#60D3FF"/>
  <circle cx="494" cy="608" r="5" fill="#7A7BFF"/>
  <circle cx="514" cy="608" r="5" fill="#40D495"/>
  <text x="106" y="728" fill="#EFF5FF" font-size="24" font-family="Arial, Helvetica, sans-serif" font-weight="700">7 inch touch display / 4-mic voice</text>
  <text x="106" y="760" fill="#EFF5FF" font-size="24" font-family="Arial, Helvetica, sans-serif" font-weight="700">Wi-Fi 6 / LAN / secure onboard runtime</text>

  <rect x="620" y="110" width="710" height="334" rx="34" fill="#0D1626" stroke="#314668"/>
  <text x="662" y="160" fill="#A9BEDF" font-size="18" font-family="Arial, Helvetica, sans-serif" letter-spacing="3">BUSINESS RUNTIME</text>
  <text x="662" y="206" fill="#FFFFFF" font-size="44" font-family="Arial, Helvetica, sans-serif" font-weight="700">Command center for daily operations</text>
  <rect x="662" y="238" width="144" height="94" rx="22" fill="#111D32" stroke="#243856"/>
  <rect x="824" y="238" width="144" height="94" rx="22" fill="#111D32" stroke="#243856"/>
  <rect x="986" y="238" width="144" height="94" rx="22" fill="#111D32" stroke="#243856"/>
  <rect x="1148" y="238" width="144" height="94" rx="22" fill="#111D32" stroke="#243856"/>
  <text x="686" y="274" fill="#82D8FF" font-size="16" font-family="Arial, Helvetica, sans-serif" letter-spacing="2">CALLS</text>
  <text x="686" y="314" fill="#FFFFFF" font-size="38" font-family="Arial, Helvetica, sans-serif" font-weight="700">18</text>
  <text x="848" y="274" fill="#7B87FF" font-size="16" font-family="Arial, Helvetica, sans-serif" letter-spacing="2">TASKS</text>
  <text x="848" y="314" fill="#FFFFFF" font-size="38" font-family="Arial, Helvetica, sans-serif" font-weight="700">32</text>
  <text x="1010" y="274" fill="#45D89C" font-size="16" font-family="Arial, Helvetica, sans-serif" letter-spacing="2">SALES</text>
  <text x="1010" y="314" fill="#FFFFFF" font-size="34" font-family="Arial, Helvetica, sans-serif" font-weight="700">2.45k</text>
  <text x="1172" y="274" fill="#FFBC65" font-size="16" font-family="Arial, Helvetica, sans-serif" letter-spacing="2">LEADS</text>
  <text x="1172" y="314" fill="#FFFFFF" font-size="38" font-family="Arial, Helvetica, sans-serif" font-weight="700">24</text>
  <rect x="662" y="354" width="382" height="58" rx="18" fill="#111D32" stroke="#243856"/>
  <rect x="1062" y="354" width="230" height="58" rx="18" fill="#111D32" stroke="#243856"/>
  <path d="M694 386L736 370L770 378L806 358L842 366L874 350L906 358L942 334L980 344L1014 326" stroke="url(#businessLine)" stroke-width="4" stroke-linecap="round"/>
  <text x="1090" y="389" fill="#E9F1FF" font-size="18" font-family="Arial, Helvetica, sans-serif">12 follow-ups ready to route</text>

  <rect x="620" y="476" width="250" height="302" rx="28" fill="#0D1626" stroke="#314668"/>
  <text x="652" y="526" fill="#A9BEDF" font-size="18" font-family="Arial, Helvetica, sans-serif" letter-spacing="3">WORKFLOW LOOP</text>
  <rect x="652" y="560" width="186" height="50" rx="18" fill="#131F35"/>
  <rect x="652" y="630" width="186" height="50" rx="18" fill="#131F35"/>
  <rect x="652" y="700" width="186" height="50" rx="18" fill="#131F35"/>
  <path d="M745 610V630" stroke="#5DD3FF" stroke-width="4"/>
  <path d="M745 680V700" stroke="#5DD3FF" stroke-width="4"/>
  <text x="678" y="592" fill="#FFFFFF" font-size="22" font-family="Arial, Helvetica, sans-serif">1 / Capture requests</text>
  <text x="678" y="662" fill="#FFFFFF" font-size="22" font-family="Arial, Helvetica, sans-serif">2 / Route to workflow</text>
  <text x="678" y="732" fill="#FFFFFF" font-size="22" font-family="Arial, Helvetica, sans-serif">3 / Report and close</text>
  <text x="652" y="770" fill="#87A4CE" font-size="17" font-family="Arial, Helvetica, sans-serif">Voice, chat, and dashboard</text>
  <text x="652" y="794" fill="#87A4CE" font-size="17" font-family="Arial, Helvetica, sans-serif">actions stay synchronized.</text>

  <rect x="894" y="476" width="210" height="302" rx="28" fill="#0D1626" stroke="#314668"/>
  <text x="926" y="526" fill="#A9BEDF" font-size="18" font-family="Arial, Helvetica, sans-serif" letter-spacing="3">KIT + PORTS</text>
  <rect x="928" y="558" width="144" height="58" rx="16" fill="#131F35"/>
  <rect x="928" y="634" width="144" height="58" rx="16" fill="#131F35"/>
  <rect x="928" y="710" width="144" height="36" rx="12" fill="#131F35"/>
  <text x="952" y="593" fill="#FFFFFF" font-size="22" font-family="Arial, Helvetica, sans-serif">Power adapter</text>
  <text x="952" y="669" fill="#FFFFFF" font-size="22" font-family="Arial, Helvetica, sans-serif">Activation card</text>
  <text x="952" y="736" fill="#FFFFFF" font-size="22" font-family="Arial, Helvetica, sans-serif">USB-C / HDMI / LAN</text>

  <rect x="1128" y="476" width="202" height="302" rx="28" fill="#0D1626" stroke="#314668"/>
  <text x="1160" y="526" fill="#A9BEDF" font-size="18" font-family="Arial, Helvetica, sans-serif" letter-spacing="3">USE CASES</text>
  <text x="1160" y="584" fill="#FFFFFF" font-size="24" font-family="Arial, Helvetica, sans-serif">Front desk command</text>
  <text x="1160" y="626" fill="#FFFFFF" font-size="24" font-family="Arial, Helvetica, sans-serif">Sales pulse view</text>
  <text x="1160" y="668" fill="#FFFFFF" font-size="24" font-family="Arial, Helvetica, sans-serif">Lead response station</text>
  <text x="1160" y="710" fill="#FFFFFF" font-size="24" font-family="Arial, Helvetica, sans-serif">Operations stand</text>
  <text x="1160" y="748" fill="#87A4CE" font-size="17" font-family="Arial, Helvetica, sans-serif">SMEs, agencies, service desks,</text>
  <text x="1160" y="772" fill="#87A4CE" font-size="17" font-family="Arial, Helvetica, sans-serif">and branded showrooms.</text>

  <rect x="70" y="818" width="1260" height="112" rx="30" fill="#0D1626" stroke="#314668"/>
  <text x="106" y="862" fill="#A9BEDF" font-size="18" font-family="Arial, Helvetica, sans-serif" letter-spacing="3">SYSTEM CHARACTER</text>
  <circle cx="264" cy="876" r="12" fill="#61D4FF"/>
  <circle cx="448" cy="876" r="12" fill="#5A79FF"/>
  <circle cx="674" cy="876" r="12" fill="#43D79A"/>
  <circle cx="904" cy="876" r="12" fill="#FFBC65"/>
  <path d="M276 876H436" stroke="#314668" stroke-width="3"/>
  <path d="M460 876H662" stroke="#314668" stroke-width="3"/>
  <path d="M686 876H892" stroke="#314668" stroke-width="3"/>
  <path d="M916 876H1080" stroke="#314668" stroke-width="3"/>
  <text x="224" y="910" fill="#E8F0FF" font-size="22" font-family="Arial, Helvetica, sans-serif">Hub device</text>
  <text x="404" y="910" fill="#E8F0FF" font-size="22" font-family="Arial, Helvetica, sans-serif">Secure cloud</text>
  <text x="614" y="910" fill="#E8F0FF" font-size="22" font-family="Arial, Helvetica, sans-serif">CRM + APIs</text>
  <text x="846" y="910" fill="#E8F0FF" font-size="22" font-family="Arial, Helvetica, sans-serif">Task automations</text>
  <text x="1084" y="910" fill="#E8F0FF" font-size="22" font-family="Arial, Helvetica, sans-serif">Operator insight</text>
</svg>
