<svg width="1400" height="980" viewBox="0 0 1400 980" fill="none" xmlns="http://www.w3.org/2000/svg">
  <rect width="1400" height="980" rx="40" fill="#111417"/>
  <text x="74" y="120" fill="#FFFFFF" font-size="64" font-family="Arial, Helvetica, sans-serif" font-weight="800">brAIn Industry</text>
  <text x="74" y="170" fill="#E0A526" font-size="28" font-family="Arial, Helvetica, sans-serif" font-weight="700">Industry 4.0 AI</text>
  <text x="74" y="244" fill="#D7E0EC" font-size="30" font-family="Arial, Helvetica, sans-serif">Smart monitoring, predictive maintenance, process</text>
  <text x="74" y="284" fill="#D7E0EC" font-size="30" font-family="Arial, Helvetica, sans-serif">optimization and secure edge deployment.</text>

  <rect x="72" y="350" width="478" height="312" rx="34" fill="#171E25" stroke="#37424D"/>
  <rect x="176" y="432" width="276" height="146" rx="20" fill="#1D232A" stroke="#7F6B2A"/>
  <rect x="244" y="406" width="24" height="56" rx="10" fill="#2B3138"/>
  <rect x="358" y="406" width="24" height="56" rx="10" fill="#2B3138"/>
  <circle cx="250" cy="522" r="8" fill="#28D391"/>
  <circle cx="288" cy="522" r="8" fill="#28D391"/>
  <circle cx="326" cy="522" r="8" fill="#28D391"/>
  <text x="150" y="616" fill="#E0A526" font-size="28" font-family="Arial, Helvetica, sans-serif" font-weight="700">PLC / SCADA · Sensors · MQTT · Edge AI</text>

  <rect x="594" y="92" width="734" height="374" rx="34" fill="#171E25" stroke="#37424D"/>
  <text x="642" y="150" fill="#FFFFFF" font-size="38" font-family="Arial, Helvetica, sans-serif" font-weight="700">Realtime dashboard</text>
  <rect x="642" y="190" width="262" height="86" rx="18" fill="#0F1624"/>
  <rect x="922" y="190" width="172" height="86" rx="18" fill="#0F1624"/>
  <rect x="1112" y="190" width="172" height="86" rx="18" fill="#0F1624"/>
  <text x="672" y="230" fill="#85E1B9" font-size="22" font-family="Arial, Helvetica, sans-serif">Machines online</text>
  <text x="672" y="262" fill="#FFFFFF" font-size="38" font-family="Arial, Helvetica, sans-serif" font-weight="700">24 / 28</text>
  <text x="952" y="230" fill="#F6C15F" font-size="22" font-family="Arial, Helvetica, sans-serif">Active alarms</text>
  <text x="952" y="262" fill="#FFFFFF" font-size="38" font-family="Arial, Helvetica, sans-serif" font-weight="700">5</text>
  <text x="1142" y="230" fill="#7EC4FF" font-size="22" font-family="Arial, Helvetica, sans-serif">Efficiency</text>
  <text x="1142" y="262" fill="#FFFFFF" font-size="38" font-family="Arial, Helvetica, sans-serif" font-weight="700">78%</text>

  <rect x="642" y="306" width="642" height="120" rx="22" fill="#0F1624"/>
  <text x="672" y="352" fill="#D7E0EC" font-size="28" font-family="Arial, Helvetica, sans-serif">AI assistant explains machine alarms, recommends actions,</text>
  <text x="672" y="390" fill="#D7E0EC" font-size="28" font-family="Arial, Helvetica, sans-serif">and keeps the cloud and mobile app synchronized.</text>

  <rect x="594" y="512" width="228" height="314" rx="28" fill="#171E25" stroke="#37424D"/>
  <rect x="848" y="512" width="228" height="314" rx="28" fill="#171E25" stroke="#37424D"/>
  <rect x="1102" y="512" width="226" height="314" rx="28" fill="#171E25" stroke="#37424D"/>
  <text x="626" y="566" fill="#E0A526" font-size="22" font-family="Arial, Helvetica, sans-serif" font-weight="700">KEY BENEFITS</text>
  <text x="626" y="620" fill="#FFFFFF" font-size="28" font-family="Arial, Helvetica, sans-serif">Reduce downtime</text>
  <text x="626" y="660" fill="#FFFFFF" font-size="28" font-family="Arial, Helvetica, sans-serif">Predictive maintenance</text>
  <text x="626" y="700" fill="#FFFFFF" font-size="28" font-family="Arial, Helvetica, sans-serif">Data-driven decisions</text>

  <text x="880" y="566" fill="#E0A526" font-size="22" font-family="Arial, Helvetica, sans-serif" font-weight="700">INTEGRATES WITH</text>
  <text x="880" y="620" fill="#FFFFFF" font-size="28" font-family="Arial, Helvetica, sans-serif">SAP · Azure · AWS</text>
  <text x="880" y="660" fill="#FFFFFF" font-size="28" font-family="Arial, Helvetica, sans-serif">Google Cloud · Siemens</text>

  <text x="1134" y="566" fill="#E0A526" font-size="22" font-family="Arial, Helvetica, sans-serif" font-weight="700">DEPLOYMENT</text>
  <text x="1134" y="620" fill="#FFFFFF" font-size="28" font-family="Arial, Helvetica, sans-serif">On-premise</text>
  <text x="1134" y="660" fill="#FFFFFF" font-size="28" font-family="Arial, Helvetica, sans-serif">Edge + cloud connected</text>
</svg>
